<svg height="510pt" viewBox="-25 0 510 510.77283" width="510pt" xmlns="http://www.w3.org/2000/svg"><path d="m230.785156 118.238281c-119.464844-76.796875-179.199218 51.203125-179.199218 51.203125-25.597657 0-42.667969 25.597656-42.667969 25.597656 0-119.464843 145.070312-145.066406 145.070312-145.066406s76.796875-8.53125 76.796875 68.265625zm0 0" fill="#fec108"/><path d="m452.652344 195.039062s-17.066406-25.597656-42.664063-25.597656c0 0-59.734375-128-179.203125-51.203125 0-76.796875 76.800782-68.265625 76.800782-68.265625s145.066406 25.601563 145.066406 145.066406zm0 0" fill="#fec108"/><path d="m384.386719 32.90625s-59.734375-8.535156-76.800781 17.066406c0 0-76.800782 17.066406-76.800782 68.265625 0-51.199219-76.796875-68.265625-76.796875-68.265625-17.070312-25.601562-76.800781-17.066406-76.800781-17.066406 76.800781-59.734375 153.597656 8.535156 153.597656 8.535156s76.800782-68.269531 153.601563-8.535156zm0 0" fill="#d84315"/><path d="m384.386719 348.640625s-9.386719 16.46875-25.601563 38.910156c.691406-38.707031-13.476562-76.210937-39.59375-104.789062l39.59375-62.121094c3.019532-3.972656 4.773438-8.757813 5.035156-13.738281 21.929688 38.570312 20.566407 141.738281 20.566407 141.738281zm0 0" fill="#fec108"/><path d="m142.976562 282.761719c-26.292968 28.777343-40.472656 66.585937-39.59375 105.558593-16.554687-22.871093-26.195312-39.679687-26.195312-39.679687s-1.878906-104.535156 20.480469-142.679687c.109375 5.3125 1.902343 10.453124 5.117187 14.679687zm0 0" fill="#fec108"/><path d="m317.3125 384.394531c-.339844 2.816407-.679688 5.800781-1.191406 9.046875.425781 7.445313.425781 14.910156 0 22.355469-1.023438 4.4375 1.449218 9.046875 0 13.738281-.683594 2.730469-6.914063 5.375-7.851563 8.191406-.1875.75-.417969 1.492188-.683593 2.21875-2.21875 6.402344 2.988281-1.109374 0 6.65625-1.707032 4.523438-10.667969 9.046876-12.714844 13.570313-.339844.339844-.683594.59375-1.023438.9375-18.515625 17.214844-39.84375 31.125-63.0625 41.128906-23.214844-10.003906-44.546875-23.914062-63.058594-41.128906-12.800781-28.074219-26.796874-56.746094-29.101562-76.117187l-1.707031-23.125v-.257813l2.476562-75.519531-2.476562-3.328125-34.132813-53.589844c-3.242187-4.351563-13.566406-1.792969-13.652344-7.082031-.054687-1.167969-.027343-2.335938.085938-3.5 3.328125-30.292969 36.265625-131.410156 141.566406-117.417969 105.300782-13.992187 137.644532 87.125 140.972656 117.417969.113282 1.164062.140626 2.332031.085938 3.5.167969.339844.339844.597656.511719.9375-.261719 4.984375-2.015625 9.769531-5.035157 13.738281l-42.667968 45.996094-2.472656 3.328125-3.242188 73.558594zm0 0" fill="#bfa885"/><path d="m317.3125 384.394531c-.339844 2.816407-.679688 5.800781-1.191406 9.046875.425781 7.445313.425781 14.910156 0 22.355469-1.023438 4.4375 1.449218 9.046875 0 13.738281-.683594 2.730469-6.914063 5.375-7.851563 8.191406-.1875.75-.417969 1.492188-.683593 2.21875-2.21875 6.402344 2.988281-1.109374 0 6.65625-1.707032 4.523438-10.667969 9.046876-12.714844 13.570313-.339844.339844-.683594.59375-1.023438.9375-18.515625 17.214844-39.84375 31.125-63.0625 41.128906-23.214844-10.003906-44.546875-23.914062-63.058594-41.128906-12.800781-28.074219-26.796874-56.746094-29.101562-76.117187l-1.707031-23.125v-.257813l2.476562-75.519531-2.476562-3.328125-34.132813-53.589844c-3.242187-4.351563-13.566406-1.792969-13.652344-7.082031-.054687-1.167969-.027343-2.335938.085938-3.5 3.328125-30.292969 36.265625-131.410156 141.566406-117.417969 105.300782-13.992187 137.644532 87.125 140.972656 117.417969.113282 1.164062.140626 2.332031.085938 3.5.167969.339844.339844.597656.511719.9375-.261719 4.984375-2.015625 9.769531-5.035157 13.738281l-42.667968 45.996094-2.472656 3.328125-3.242188 73.558594zm0 0" fill="#bfa885"/><g fill="#d84315"><path d="m315.097656 384.394531c-.34375 2.816407-.683594 5.800781-1.195312 9.046875-1.023438 6.738282-2.390625 14.335938-4.269532 22.355469-1.023437 4.4375-2.21875 9.046875-3.667968 13.738281-.683594 2.730469-1.535156 5.375-2.472656 8.191406-.191407.75-.417969 1.492188-.683594 2.21875-.769532 2.21875-1.535156 4.4375-2.390625 6.65625-1.707031 4.523438-3.5 9.046876-5.546875 13.570313 23.746094-21.945313 45.167968-46.277344 63.914062-72.621094.691406-38.707031-13.476562-76.210937-39.59375-104.789062l-2.472656 3.328125v73.558594zm0 0"/><path d="m147.160156 384.992188c2.976563 26.261718 9.910156 51.925781 20.566406 76.117187-23.914062-21.9375-45.476562-46.300781-64.34375-72.703125v-.085938c-.878906-38.972656 13.300782-76.78125 39.59375-105.558593l2.476563 3.328125v75.777344zm0 0"/><path d="m230.785156 118.238281c-105.300781-13.992187-123.988281 70.058594-127.316406 100.351563-.113281 1.164062-.140625 2.332031-.085938 3.5-22.355468 38.144531-26.195312 126.550781-26.195312 126.550781-17.066406 8.53125-25.601562 34.132813-25.601562 34.132813-42.667969-85.332032 0-213.332032 0-213.332032s59.734374-128 179.199218-51.203125zm0 0"/><path d="m409.988281 382.773438c-3.648437-10.296876-9.371093-19.738282-16.8125-27.734376-2.585937-2.570312-5.550781-4.726562-8.789062-6.398437 0 0-3.753907-87.042969-25.6875-125.613281-.167969-.339844-.339844-.597656-.511719-.9375.058594-1.167969.03125-2.335938-.082031-3.5-3.246094-29.523438-21.078125-109.992188-119.210938-101.203125-2.648437.171875-5.292969.511719-8.109375.851562.683594-.511719 1.367188-.9375 2.050782-1.363281 16-11.441406 34.425781-19.035156 53.84375-22.1875 77.566406-11.09375 123.308593 74.753906 123.308593 74.753906s42.664063 128 0 213.332032zm0 0"/></g><path d="m393.175781 355.039062c-2.585937-2.570312-5.550781-4.726562-8.789062-6.398437 0 0-3.753907-87.042969-25.6875-125.613281-.167969-.339844-.339844-.597656-.511719-.9375.058594-1.167969.03125-2.335938-.082031-3.5-3.246094-29.523438-21.078125-109.992188-119.210938-101.203125-1.964843-.257813-4.011719-.425781-6.058593-.511719 16-11.441406 34.425781-19.035156 53.84375-22.1875 60.757812 8.960938 95.828124 74.753906 95.828124 74.753906s34.304688 102.824219 10.667969 185.597656zm0 0" fill="#ff5722"/><path d="m333.1875 254.773438c0 21.289062-11.496094 58.582031-16.828125 76.800781-2.65625 9.070312 3.523437 34.703125-.230469 42.664062-4.464844 9.464844-19.0625 1-24.839844 8.535157-16.351562 21.332031-37.460937 34.132812-60.503906 34.132812-23.039062 0-44.148437-12.800781-60.492187-34.132812-3.984375-5.207032-21.460938-2.382813-24.839844-8.535157-5.511719-10.035156 3.601563-29.773437 0-41.878906-5.476563-18.425781-17.066406-55.988281-17.066406-77.585937 0-80.121094 50.566406-128 102.398437-128 51.832032 0 102.402344 47.878906 102.402344 128zm0 0" fill="#ffe0b2"/><path d="m231.382812 314.507812c13.4375 1.566407 24.035157 12.164063 25.601563 25.597657 0 9.386719-11.433594 8.535156-25.601563 8.535156h-.597656c-14.164062 0-25.597656.851563-25.597656-8.535156 1.566406-13.433594 12.164062-24.03125 25.597656-25.597657zm0 0" fill="#2c2f38"/><path d="m205.015625 248.371094c-.984375 12.421875-10.769531 22.332031-23.175781 23.46875-12.410156 1.140625-23.835938-6.816406-27.066406-18.847656-3.234376-12.035157 2.667968-24.648438 13.976562-29.878907 8.203125 1.960938 15.222656 7.246094 19.371094 14.59375 2.8125 6.765625 9.574218 11.035157 16.894531 10.664063zm0 0" fill="#cfd8dc"/><path d="m307.585938 246.238281c-.382813 13.4375-11.089844 24.289063-24.519532 24.851563-13.429687.5625-25.007812-9.359375-26.507812-22.71875 7.316406.371094 14.082031-3.898438 16.894531-10.664063 4.144531-7.347656 11.164063-12.632812 19.371094-14.59375 9.023437 4.15625 14.792969 13.191407 14.761719 23.125zm0 0" fill="#cfd8dc"/><path d="m274.050781 399.839844-4.4375 22.101562c-2.398437 11.953125-12.894531 20.558594-25.089843 20.566406h-26.878907c-12.191406-.007812-22.691406-8.613281-25.085937-20.566406l-4.4375-22.101562 36.351562-14.507813c2.003906-.8125 4.148438-1.21875 6.3125-1.195312h.597656c2.164063-.023438 4.3125.382812 6.316407 1.195312zm0 0" fill="#37474f"/><path d="m.386719 195.039062c-.003907 3.757813 2.453125 7.078126 6.050781 8.171876 3.59375 1.09375 7.484375-.296876 9.574219-3.417969 5.988281-8.371094 14.058593-15.039063 23.40625-19.34375-9.863281 35.921875-31.351563 134.347656 4.53125 206.136719 1.542969 3.09375 4.796875 4.949218 8.242187 4.707031 3.445313-.246094 6.402344-2.542969 7.492188-5.824219 3.175781-9.15625 8.269531-17.527344 14.941406-24.558594 17.230469 27.9375 78.003906 119.246094 153.019531 149.257813 2.039063.808593 4.3125.808593 6.351563 0 74.964844-30.003907 135.738281-121.292969 152.949218-149.242188 6.644532 7.050781 11.730469 15.417969 14.925782 24.5625 1.097656 3.269531 4.058594 5.554688 7.5 5.792969 3.449218.289062 6.722656-1.578125 8.226562-4.695312 35.890625-71.789063 14.394532-170.179688 4.53125-206.136719 9.34375 4.304687 17.40625 10.964843 23.398438 19.328125 2.078125 3.152344 5.980468 4.5625 9.597656 3.472656 3.613281-1.09375 6.078125-4.433594 6.0625-8.210938 0-99.429687-95.019531-137.566406-134.828125-149.179687 17.46875-7.515625 45.875-6.066406 56.867187-4.503906 3.832032.550781 7.554688-1.550781 9.066407-5.117188 1.511719-3.5625.433593-7.699219-2.625-10.074219-69.1875-53.777343-138.886719-10.324218-158.882813 4.429688-19.992187-14.804688-89.691406-58.207031-158.839844-4.429688-3.058593 2.375-4.136718 6.511719-2.625 10.074219 1.511719 3.566407 5.234376 5.667969 9.070313 5.117188 10.988281-1.5625 39.390625-3.011719 56.863281 4.503906-39.847656 11.613281-134.867187 49.75-134.867187 149.179687zm51.738281 167.082032c-27.246094-77.652344 4.828125-181.441406 7.390625-189.4375 2.027344-4.132813 27.203125-53.582032 73.90625-67.023438 19.777344-5.3125 40.734375-4.148437 59.800781 3.328125-19.777344 1.660157-38.664062 8.945313-54.433594 20.992188-32.058593 25.082031-41.121093 64.699219-43.683593 86.726562-23.140625 32.535157-26.070313 107.613281-26.453125 127.246094-6.675782 4.882813-12.296875 11.0625-16.527344 18.167969zm307.796875-120.242188c.128906-.171875.210937-.375.339844-.554687 13.78125 34.6875 15.359375 92.875 15.566406 105.027343-1.605469 2.699219-4.914063 8.109376-9.695313 15.359376-6.066406-56.113282-34.984374-78.625-36.359374-79.65625zm-35.566406 122.367188c.167969-.867188.265625-1.75.296875-2.636719v-60.882813c8.78125 9.820313 25.601562 34.78125 25.601562 82.046876.050782.5.152344.996093.296875 1.476562-11.070312 15.265625-22.972656 29.910156-35.652343 43.867188 5.84375-20.3125 9.121093-41.28125 9.753906-62.410157-.050782-.496093-.148438-.984375-.296875-1.460937zm21.914062-132.605469-45.511719 60.679687c-1.9375 2.585938-2.25 6.042969-.804687 8.933594 1.445313 2.894532 4.402344 4.71875 7.632813 4.71875v55.636719l-35.574219 28.460937-31.71875-12.691406c-.316407-.128906-.648438-.167968-.972657-.28125v-19.925781c7.53125.898437 15.117188-1.171875 21.152344-5.769531 2.972656-2.992188 4.578125-7.078125 4.445313-11.296875-1.617188-18.136719-15.992188-32.511719-34.132813-34.132813-18.136718 1.621094-32.511718 15.996094-34.132812 34.132813-.125 4.207031 1.484375 8.285156 4.445312 11.273437 6.03125 4.605469 13.617188 6.6875 21.15625 5.792969v19.960937c-.324218.109376-.65625.160157-.972656.289063l-31.71875 12.679687-35.574219-28.492187v-55.636719c3.230469 0 6.183594-1.824218 7.628907-4.71875 1.445312-2.890625 1.136718-6.347656-.804688-8.933594l-45.507812-60.679687c-2.605469-3.472656-3.792969-7.804687-3.320313-12.117187 2.101563-19.160157 9.746094-54.53125 37.335937-76.144532 19.8125-15.53125 46.847657-21.15625 80.339844-16.683594.195313 0 .375-.050781.570313 0 .199219.050782.359375.078126.554687.078126.199219 0 .367188-.101563.554688-.113282.1875-.007812.375.0625.574218 0 33.5-4.46875 60.515626 1.152344 80.339844 16.683594 27.589844 21.617188 35.234375 56.988281 37.332032 76.144531.484374 4.324219-.703126 8.671875-3.316407 12.152344zm-115.484375 202.332031h-13.148437c-8.121094-.027344-15.105469-5.761718-16.71875-13.722656l-3.019531-15.128906 29.730468-11.886719c2.035156-.8125 4.304688-.8125 6.339844 0l29.738281 11.894531-3.054687 15.121094c-1.609375 7.960938-8.59375 13.695312-16.714844 13.722656zm3.414063-93.867187h-6.824219c-4.542969.191406-9.09375-.039063-13.59375-.691407.628906-5.578124 8.53125-16.382812 17.066406-16.382812 8.53125 0 16.390625 10.804688 17.066406 16.382812-4.539062.671876-9.132812.90625-13.714843.691407zm-132.8125-98.652344c.101562.136719.164062.289063.265625.425781l30.148437 40.199219c-1.375 1.035156-30.292969 23.542969-36.363281 79.660156-4.777344-7.277343-8.085938-12.699219-9.691406-15.359375.195312-22.597656 3.457031-73.804687 15.640625-104.925781zm9.933593 141.320313c0-47.265626 16.820313-72.226563 25.597657-82.039063v60.875c.03125.882813.132812 1.761719.300781 2.628906-.148438.476563-.246094.96875-.300781 1.46875.632812 21.128907 3.910156 42.097657 9.753906 62.410157-12.675781-13.957032-24.578125-28.601563-35.652344-43.867188.148438-.480469.25-.976562.300781-1.476562zm119.464844 110.222656c-20.496094-9.328125-39.394531-21.832032-55.996094-37.050782-9.910156-22.695312-16.433593-46.726562-19.351562-71.320312l24.925781 19.933594 3.804688 19.046875c3.226562 15.929687 17.214843 27.398437 33.46875 27.433593h26.300781c16.253906-.035156 30.242188-11.503906 33.464844-27.433593l3.808594-19.046875 24.941406-19.949219c-2.910156 24.601563-9.4375 48.640625-19.371094 71.335937-16.601562 15.21875-35.5 27.722657-55.996094 37.050782zm178.671875-130.875c-4.25-7.109375-9.894531-13.289063-16.589843-18.167969-.367188-19.625-3.292969-94.71875-26.453126-127.246094-2.558593-22.027343-11.585937-61.644531-43.648437-86.761719-15.761719-12.042968-34.644531-19.328124-54.414063-20.988281 19.058594-7.464843 40.011719-8.632812 59.78125-3.328125 46.679688 13.429688 71.851563 62.828125 73.902344 67.011719 2.566406 7.96875 34.71875 111.707031 7.421875 189.480469zm32.683594-189.804688c-7.804687-5.976562-17.035156-9.800781-26.777344-11.09375-7.722656-14.328125-34.730469-58.207031-82.363281-71.980468-28.265625-8.164063-58.410156-4.019532-89.761719 12.058593 13.148438-28.007812 56.035157-40.386719 64.585938-42.589843 15.121093 3.019531 118.664062 26.792968 134.316406 113.605468zm-331.257813-149.019531c59.402344-22.902344 111.71875 22.289063 114.246094 24.535156 3.230469 2.871094 8.101563 2.871094 11.332032 0 .613281-.554687 54.101562-47.054687 113.988281-24.507812-17.417969 1.277343-36.777344 6.023437-47.617188 19.046875-11.382812 2.941406-53.757812 15.734375-72.046875 45.875-18.3125-30.140625-60.671875-42.933594-72.046875-45.875-10.886719-13.089844-30.351562-17.820313-47.855469-19.074219zm42.863282 35.414063c8.535156 2.203124 51.457031 14.59375 64.589844 42.617187-31.351563-16.085937-61.5-20.234375-89.761719-12.066406-47.632813 13.769531-74.640625 57.648437-82.363281 71.976562-9.742188 1.296875-18.976563 5.121094-26.777344 11.09375 15.648437-86.828125 119.191406-110.601562 134.3125-113.621093zm0 0"/><path d="m209.90625 238.601562c-1.304688.652344-2.710938 1.085938-4.15625 1.28125h-.070312c-.144532 0-.261719.050782-.40625.050782-4.167969.359375-8.058594-2.105469-9.515626-6.023438-10.777343-21.554687-40.507812-21.804687-41.769531-21.804687-4.007812.042969-7.449219 2.863281-8.269531 6.785156s1.199219 7.886719 4.855469 9.53125c-6.964844 11.300781-6.726563 25.617187.601562 36.679687 7.332031 11.066407 20.421875 16.867188 33.542969 14.863282s23.882812-11.445313 27.574219-24.195313c1.816406-.457031 3.582031-1.089843 5.273437-1.894531 4.21875-2.105469 5.929688-7.230469 3.824219-11.449219s-7.234375-5.929687-11.449219-3.824219zm-30.320312 24.703126c-9.425782 0-17.066407-7.640626-17.066407-17.066407.042969-5.5 2.769531-10.632812 7.304688-13.746093 4.519531 1.632812 8.304687 4.839843 10.65625 9.027343 2.761719 6.011719 7.644531 10.792969 13.714843 13.425781-3.023437 5.195313-8.59375 8.382813-14.609374 8.359376zm0 0"/><path d="m316.121094 220.640625c0-4.714844-3.820313-8.535156-8.535156-8.535156-1.261719 0-30.992188.25-41.8125 21.785156-1.414063 3.800781-5.121094 6.253906-9.171876 6.066406-.0625 0-.121093 0-.179687 0-1.667969-.148437-3.292969-.597656-4.796875-1.328125-4.21875-2.109375-9.34375-.394531-11.453125 3.820313-2.105469 4.21875-.394531 9.347656 3.824219 11.453125 1.691406.800781 3.457031 1.4375 5.273437 1.894531 3.699219 12.75 14.46875 22.1875 27.59375 24.1875 13.121094 2 26.210938-3.804687 33.539063-14.875 7.332031-11.070313 7.5625-25.386719.597656-36.6875 3.097656-1.351563 5.105469-4.402344 5.121094-7.78125zm-34.132813 42.664063c-6.015625.023437-11.585937-3.164063-14.609375-8.359376 6.085938-2.625 10.984375-7.40625 13.753906-13.425781 2.367188-4.1875 6.164063-7.386719 10.691407-9.011719 4.496093 3.132813 7.191406 8.253907 7.230469 13.730469 0 9.425781-7.644532 17.066407-17.066407 17.066407zm0 0"/></svg>