<?xml version="1.0" encoding="utf-8"?>
<!-- Generator: Adobe Illustrator 22.0.1, SVG Export Plug-In . SVG Version: 6.00 Build 0)  -->
<svg version="1.1" id="Слой_1" xmlns="http://www.w3.org/2000/svg" xmlns:xlink="http://www.w3.org/1999/xlink" x="0px" y="0px"
	 viewBox="0 0 612 792" style="enable-background:new 0 0 612 792;" xml:space="preserve">
<style type="text/css">
	.st0{fill:#FFFFFF;}
</style>
<g>
	<path class="st0" d="M9.2,529.3c0-112.2,0-224.5,0-336.7c200.9,0,401.9,0,602.8,0c0,112.2,0,224.5,0,336.7
		C411.1,529.3,210.1,529.3,9.2,529.3z M71,330.5c-0.2,0.8-0.3,1.2-0.4,1.6c-2.7,10.4-4.5,21-5,31.7c-0.4,8.2,0,16.3,1.6,24.4
		c1,5.3,2.6,10.4,4.9,15.3c0.2,0.5,0.4,1,0.7,1.4c0.6,1,1.6,1.5,2.8,1.4c1.2-0.1,2-0.7,2.5-1.7c0.2-0.3,0.3-0.7,0.4-1.1
		c1.1-2.7,2.5-5.2,4.5-7.4c0.2-0.2,0.3-0.5,0.8-0.4c0.2,0.3,0.4,0.6,0.6,0.9c2.5,3.9,5.1,7.7,7.8,11.5c5.6,7.6,11.7,14.9,18.5,21.6
		c5.1,5,10.5,9.5,16.6,13.4c3.5,2.3,7.1,4.2,11,5.8c0.7,0.3,1.4,0.5,2.1,0.4c0.5-0.1,1-0.3,1.5-0.5c4.6-1.9,8.8-4.3,12.9-7.1
		c7.2-5,13.6-10.9,19.5-17.2c7.9-8.5,14.9-17.8,21.1-27.5c0.3-0.4,0.6-0.9,0.8-1.3c0.2,0.1,0.3,0.1,0.4,0.1c0.2,0.2,0.4,0.4,0.6,0.6
		c1.8,2.1,3.2,4.4,4.2,7c0.2,0.4,0.3,0.9,0.5,1.3c0.6,1.1,1.5,1.6,2.7,1.6c1.4,0,2.3-0.6,2.9-1.8c0.8-1.8,1.6-3.5,2.3-5.4
		c3-7.9,4.3-16.1,4.7-24.5c0.2-4.8,0.1-9.7-0.2-14.5c-0.3-4.5-0.9-9-1.6-13.4c-0.8-5.1-1.9-10.1-3.2-15c-0.1-0.3-0.1-0.5-0.1-0.8
		c0.2,0,0.3-0.1,0.3-0.1c0.3,0.1,0.5,0.2,0.8,0.4c2.4,1.4,4.5,3.1,6.3,5.2c0.4,0.4,0.7,0.9,1.1,1.4c0.8,0.9,1.8,1.2,3,1
		c1.2-0.3,2-1,2.3-2.2c0.1-0.5,0.2-0.9,0.2-1.4c-0.1-3.6-0.4-7.2-1.2-10.7c-2-8.6-6.2-16.1-12.4-22.5c-4.7-4.9-10.2-8.9-16.3-12.2
		c-5.6-3.1-11.4-5.4-17.5-7.3c-0.3-0.1-0.6-0.3-1-0.5c0.8-0.3,1.4-0.5,2-0.7c2.2-0.6,4.4-1,6.6-1.1c3.7-0.2,7.4-0.2,11.1,0.2
		c0.4,0,0.8,0.1,1.2,0.1c1.7,0,2.9-1.3,3-2.9c0-1.1-0.4-2-1.3-2.7c-1.5-1.1-3-2.2-4.5-3.1c-9.8-5.9-20.3-7.6-31.5-5
		c-7.2,1.6-13.7,4.7-19.7,8.8c-0.5,0.3-1,0.6-1.5,1c-0.3-0.2-0.6-0.4-0.9-0.6c-0.8-0.6-1.7-1.1-2.5-1.7c-7.2-4.5-14.9-7.6-23.4-8.5
		c-4.6-0.5-9.1-0.2-13.6,0.9c-6.1,1.5-11.6,4.3-16.6,8c-0.3,0.2-0.6,0.5-0.9,0.8c-0.8,1-1,2.2-0.4,3.3c0.6,1.1,1.5,1.7,2.8,1.7
		c0.3,0,0.7,0,1-0.1c3.7-0.5,7.4-0.5,11.1-0.2c2.6,0.2,5.1,0.6,7.6,1.4c0.3,0.1,0.6,0.3,1,0.5c-0.5,0.2-0.8,0.3-1.1,0.4
		c-5.1,1.6-10.1,3.6-14.9,6c-6,3-11.5,6.7-16.4,11.2c-5.5,5.1-9.7,10.9-12.5,17.8c-2,5-3.1,10.2-3.4,15.5c-0.1,1-0.1,2,0,3
		c0.1,1.3,0.8,2.2,2.1,2.7c1.2,0.4,2.4,0.1,3.3-0.9c0.3-0.3,0.5-0.7,0.8-1c1.7-2.2,3.8-4,6.3-5.4C69.9,331,70.3,330.8,71,330.5z
		 M513,356.1c0-0.5,0.1-0.8,0.1-1.2c0-2.3,0-4.6,0-6.8c0-0.2,0-0.5,0-0.7c0-0.4-0.2-0.6-0.6-0.6c-0.6,0-1.3-0.1-1.9-0.1
		c-78,0-156,0-234,0c-0.5,0-1,0-1.5,0c-0.3,0-0.6,0.1-1,0.2c-0.1,0.2-0.1,0.4-0.1,0.6c0,2.7,0,5.4,0,8.1c0,0.2,0.1,0.3,0.2,0.5
		c0.2,0.1,0.3,0.1,0.5,0.1c79.2,0,158.4,0,237.7,0C512.4,356.3,512.6,356.2,513,356.1z M493.5,402.5c0-0.5,0.3-0.5,0.5-0.6
		c1-0.2,2.1-0.4,3.1-0.6c2.7-0.7,5.3-1.6,7.6-3.2c2.3-1.6,4-3.7,4.7-6.5c0.4-1.5,0.5-3.1,0.4-4.7c-0.3-2.7-1.3-5.1-3.3-7.1
		c-1.7-1.6-3.7-2.7-6-3.5c-3.6-1.3-7.3-1.7-11.1-2c-1.8-0.1-3.7-0.1-5.5,0c-4.2,0.1-8.4,0.2-12.7,0.3c-2.2,0.1-4.4,0.2-6.6,0.2
		c-0.1,0-0.2,0-0.3,0c-0.4,0.1-0.6,0.2-0.6,0.6c0,0.3,0.1,0.5,0.2,0.8c0.4,0,0.6,0.1,0.9,0.1c1.3,0.1,2.5,0.1,3.8,0.3
		c2.4,0.2,3.6,1.4,4.1,3.7c0.1,0.6,0.2,1.1,0.2,1.7c0.1,2.3,0.2,4.6,0.2,6.8c0,10.2,0,20.4,0,30.6c0,2.4-0.1,4.7-0.2,7.1
		c0,0.7-0.1,1.4-0.3,2.1c-0.5,1.8-1.6,2.9-3.4,3.3c-0.9,0.2-1.8,0.3-2.7,0.3c-0.9,0.1-1.7,0-2.6,0c-0.5,0-0.7,0.2-0.7,0.7
		c-0.1,0.7,0.1,1,0.9,1c0.4,0,0.8,0,1.2,0c5.7,0,11.4,0,17.1,0c4.6,0,9.1-0.1,13.7-0.5c1.9-0.2,3.8-0.4,5.6-0.9
		c5.7-1.6,9.5-5.1,11.2-10.8c0.4-1.5,0.5-3,0.5-4.5c0-2.4-0.7-4.7-2-6.7c-1.7-2.7-4.1-4.6-7-5.9c-2.4-1.1-5-1.7-7.7-2.1
		C495.5,402.8,494.5,402.6,493.5,402.5z M396.9,265.7c-0.9,0-2.3,0.1-3.7,0.2c-0.7,0-1.3,0.2-2,0.2c-4.9,0.6-9.4,2.2-13.5,4.9
		c-4.6,3-8.3,6.8-10.6,11.8c-1.8,3.9-2.6,8-2.7,12.3c-0.1,2.4,0.1,4.7,0.5,7.1c1.5,9,6.3,15.8,14.2,20.5c5.2,3.1,10.9,4.3,16.9,4.5
		c1.7,0.1,3.5,0,5.2-0.2c2-0.2,4-0.5,6-0.9c6.4-1.5,11.8-4.7,16.1-9.6c4.3-4.9,6.5-10.8,6.9-17.2c0.2-3.4,0.1-6.7-0.5-10.1
		c-1.1-5.4-3.5-10.1-7.5-14.1c-4.1-4-8.9-6.7-14.4-8.2C404.5,266.1,401,265.8,396.9,265.7z M491.9,313.2c-0.8-0.3-1.1-0.8-1.4-1.3
		c-11.3-14.5-22.5-29.1-33.8-43.6c-0.3-0.3-0.5-0.7-0.8-1c-0.3-0.4-0.6-0.6-1.1-0.6c-0.3,0-0.6,0-0.9,0c-4.8,0-9.5,0-14.3,0
		c-0.3,0-0.6,0-0.9,0c-0.8,0-1.1,0.4-1,1.1c0.1,0.4,0.3,0.6,0.6,0.6c0.5,0,1.1,0,1.6,0c0.9,0.1,1.8,0.2,2.7,0.3
		c1.5,0.2,2.4,1,2.9,2.2c0.3,0.7,0.6,1.5,0.7,2.3c0.2,1.4,0.3,2.8,0.3,4.2c0,12.5,0,25,0,37.4c0,0.9,0,1.7,0,2.6
		c0,0.5-0.1,1-0.2,1.6c-0.1,1.3-0.9,2.3-2,3c-1.3,0.9-2.7,1.5-4.3,1.8c-0.8,0.2-1.6,0.2-2.4,0.4c-0.6,0.1-0.8,0.3-0.8,1
		c0,0.2,0.1,0.4,0.2,0.7c0.6,0,1.1,0.1,1.6,0.1c6.2,0,12.4,0,18.7,0c0.4,0,0.9,0,1.3,0c0.1,0,0.3-0.1,0.4-0.2
		c0.2-0.4,0.2-0.8-0.1-1.3c-0.8-0.2-1.6-0.3-2.4-0.3c-2.2-0.2-4.3-0.8-6-2.2c-1.1-0.9-1.7-1.9-1.8-3.3c-0.1-1.7-0.3-3.3-0.3-5
		c0-13.3,0-26.7,0-40c0-0.4,0-0.9,0-1.3c0-0.2,0.2-0.4,0.3-0.6c0.8,0.4,1.1,1.1,1.5,1.6c13.5,17.5,27,35,40.6,52.5
		c0.2,0.3,0.5,0.6,0.7,0.9c0.5,0.7,1.2,0.7,2,0.4c0-0.4,0.1-0.8,0.1-1.3c0-1.7,0-3.4,0-5.1c0-14.2,0-28.4,0-42.6
		c0-1.5,0-2.9,0.3-4.4c0.3-1.4,0.9-2.5,2.1-3.3c1-0.7,2.1-1.2,3.3-1.5c1.2-0.3,2.4-0.5,3.6-0.8c0.1-0.2,0.2-0.3,0.2-0.5
		c0.1-0.8-0.1-1-0.9-1.1c-0.2,0-0.5,0-0.7,0c-6.1,0-12.1,0-18.2,0c-0.3,0-0.7,0-1,0c-0.4,0-0.6,0.3-0.6,0.6
		c-0.1,0.8,0.2,1.1,0.9,1.1c1,0,1.9,0.1,2.9,0.3c1.3,0.2,2.5,0.6,3.7,1.3c1.3,0.8,2.2,1.9,2.4,3.4c0.2,1,0.3,2.1,0.3,3.1
		c0,11.8,0,23.5,0,35.3C492,312.3,492,312.7,491.9,313.2z M326.5,426.7c0.2,0.2,0.5,0.5,0.7,0.8c0.8,1.2,1.4,2.4,1.8,3.7
		c0.1,0.4,0.2,0.7,0.4,1.1c0.1,0.3,0.5,0.5,1,0.4c0.3-0.1,0.5-0.3,0.5-0.6c0-0.2,0-0.5,0-0.7c0-5.9,0-11.9,0-17.8
		c0-0.2,0-0.5-0.1-0.7c-0.1-0.3-0.3-0.5-0.6-0.5c-0.4,0-0.7,0.1-0.8,0.4c-0.1,0.2-0.1,0.5-0.2,0.7c-0.7,4-2.2,7.7-4.3,11.1
		c-1.9,3-4.6,5.3-7.9,6.7c-3.3,1.4-6.6,2.1-10.2,2c-3.6-0.1-7-1.1-10-3c-4-2.6-6.8-6.1-8.5-10.4c-1.5-3.6-2.2-7.4-2.3-11.2
		c-0.1-2,0-4.1,0-6.1c0-3.5,0.6-6.9,1.5-10.3c1-3.6,2.6-7,5-9.9c3.6-4.3,8.3-6.4,14-6.6c1.8-0.1,3.6,0.1,5.3,0.5
		c7,1.6,12.3,5.3,15.1,11.9c0.1,0.3,0.3,0.6,0.4,0.9c0.9,2.3,1.5,4.6,2,7c0,0.2,0.1,0.5,0.2,0.7c0.1,0.3,0.5,0.4,0.9,0.4
		c0.3-0.1,0.5-0.2,0.6-0.6c0-0.4,0-0.9,0-1.3c-0.1-3.5-0.2-6.9-0.2-10.4c-0.1-2.7-0.1-5.4-0.1-8.1c0-0.4,0-0.9-0.1-1.3
		c0-0.2-0.3-0.4-0.5-0.4c-0.7-0.2-1,0.1-1.2,0.7c0,0.2,0,0.4-0.1,0.6c-0.3,1.9-0.9,3.7-1.7,5.4c-0.1,0.3-0.4,0.5-0.6,0.9
		c-0.4-0.3-0.7-0.5-0.9-0.8c-4.9-4.7-10.8-7.3-17.6-7.9c-3.3-0.3-6.6,0-9.8,0.8c-8.1,2-14.1,6.5-17.9,13.9
		c-2.4,4.7-3.7,9.7-4.1,14.9c-0.2,3.9,0.1,7.7,1.1,11.4c2.5,8.9,8.2,15,16.9,18.5c3,1.2,6.1,1.8,9.4,1.9c2.4,0.1,4.8,0.1,7.3-0.3
		c3.8-0.6,7.3-1.9,10.5-4c1.5-1,2.8-2.1,4.1-3.4C325.6,427.2,325.9,426.8,326.5,426.7z M438.9,375.1c-0.3,0.9-0.3,1.1-0.1,1.3
		c0.3,0.2,0.6,0.3,0.9,0.4c0.2,0.1,0.5,0,0.7,0.1c1.2,0.2,2.3,0.4,3.4,0.9c1.8,0.8,3.1,2.2,3.5,4.1c0.2,0.9,0.3,1.9,0.4,2.8
		c0.1,2.7,0.1,5.3,0.2,8c0,5.2,0.1,10.3,0,15.5c-0.1,3.3,0,6.6-0.4,10c-0.5,4.3-2.5,7.8-6,10.5c-2,1.5-4.2,2.5-6.6,3.2
		c-4.2,1.2-8.4,1.3-12.7,0.5c-3.6-0.7-6.7-2.4-9.1-5.2c-1.2-1.4-2.1-3.1-2.4-5c-0.3-1.5-0.5-3.1-0.6-4.7c-0.2-3-0.3-6-0.3-9
		c0-3.9,0-7.9,0-11.8c0-4.6-0.2-9.3,0.2-13.9c0.1-0.8,0.1-1.5,0.3-2.3c0.5-2.2,1.7-3.3,4-3.5c0.1,0,0.3,0,0.4,0
		c1.3-0.1,2.6-0.2,3.9-0.3c0.2,0,0.4-0.1,0.5-0.1c0.1-0.2,0.2-0.2,0.2-0.3c0.1-0.9-0.1-1-0.9-1.1c-0.3,0-0.7,0-1,0
		c-7.9,0-15.7,0-23.6,0c-0.6,0-1.2-0.1-1.7,0.1c-0.3,0.5-0.3,0.9,0.2,1.4c0.5,0,1.1,0,1.7,0.1c1.4,0.1,2.8,0.2,4.2,0.5
		c1.3,0.3,2.2,1.1,2.6,2.3c0.2,0.7,0.4,1.4,0.5,2.1c0.3,2.3,0.3,4.6,0.3,7c0,8.7,0,17.4,0,26.1c0,2.2,0.2,4.4,0.6,6.5
		c0.9,4.3,3.1,7.7,6.9,10.1c1.8,1.1,3.6,2.1,5.6,2.7c2.7,0.9,5.4,1.4,8.3,1.5c2.7,0.1,5.4,0.1,8.1-0.3c3-0.4,5.9-1.3,8.6-2.6
		c3.4-1.7,6.1-4.1,7.9-7.3c0.8-1.4,1.4-2.8,1.6-4.4c0.4-2.3,0.6-4.6,0.6-6.9c0-8.2,0-16.3,0-24.5c0-2,0.1-4.1,0.3-6.1
		c0.2-1.6,0.8-3,2.1-4.1c1-0.9,2.2-1.5,3.5-1.9c0.7-0.2,1.5-0.3,2.3-0.4c0.3-0.1,0.5-0.2,0.7-0.3c0.1-0.5,0.2-0.9-0.1-1.3
		C457.2,374.9,440.5,374.9,438.9,375.1z M368.8,376.5c0.4-1.4,0.3-1.5-0.9-1.6c-0.1,0-0.3,0-0.4,0c-8.6,0-17.2,0-25.8,0
		c-0.3,0-0.7,0-1,0c-0.3,0-0.5,0.3-0.5,0.7c0,0.4,0.2,0.7,0.5,0.7c0.2,0,0.4,0,0.6,0c1.3,0.1,2.6,0.1,3.9,0.3
		c2.3,0.3,3.5,1.1,4.1,3.5c0,0.2,0.1,0.4,0.1,0.6c0.1,1.4,0.3,2.8,0.3,4.3c0,12.8,0,25.6,0,38.4c0,1.4-0.1,2.8-0.3,4.3
		c-0.3,2.5-1.6,3.9-4.2,4.4c-1,0.2-2,0.2-3,0.3c-0.5,0-1,0-1.5,0c-0.4,0-0.6,0.3-0.6,0.8c0,0.5,0.2,0.8,0.6,0.8c0.5,0,1,0,1.5,0
		c15.8,0,31.6,0,47.4,0c0.4,0,0.8,0,1.2,0c0.2,0,0.5-0.1,0.8-0.2c0.5-5.1,0.1-10.2,0.6-15.3c0-0.5,0.1-0.9-0.2-1.4
		c-0.5-0.2-1-0.2-1.6,0c-0.2,0.4-0.3,0.9-0.5,1.3c-0.7,2.1-1.4,4.2-2.5,6.2c-0.9,1.8-2.1,3.4-3.6,4.8c-1.2,1.1-2.5,1.9-4.1,2.3
		c-1.4,0.3-2.9,0.6-4.3,0.6c-3.5,0.1-7.1,0.1-10.6,0c-1.1,0-2.3-0.2-3.4-0.6c-1.4-0.4-2.4-1.4-2.7-2.9c-0.1-0.5-0.2-0.9-0.2-1.4
		c-0.1-2.6-0.2-5.1-0.2-7.7c0-5.6,0-11.3,0-16.9c0-6.6-0.2-13.3,0.2-19.9c0.1-0.9,0.1-1.8,0.3-2.7c0.4-2.2,1.6-3.3,3.9-3.6
		c1.5-0.2,3-0.2,4.5-0.3C367.6,376.5,368.2,376.5,368.8,376.5z M325.2,325.9c0.1-0.3,0.1-0.5,0.1-0.7c0.1-3.2,0.2-6.4,0.3-9.5
		c0-1.7,0-3.3,0.1-5c0-0.4,0-0.8,0-1.1c0-0.4-0.2-0.6-0.7-0.6c-0.7-0.1-1,0.1-1.2,0.8c-0.1,0.4-0.2,0.7-0.3,1.1
		c-0.7,2.2-1.5,4.3-2.6,6.3c-0.9,1.7-2,3.1-3.4,4.4c-1.2,1.1-2.6,1.9-4.3,2.3c-1.6,0.4-3.2,0.5-4.8,0.6c-3.7,0.2-7.5,0.2-11.2-0.1
		c-0.7,0-1.4-0.2-2-0.4c-1.8-0.6-2.9-1.7-3.1-3.6c-0.1-1.4-0.3-2.8-0.3-4.3c0-12.7,0-25.3,0-38c0-1.7,0.1-3.3,0.3-5
		c0.1-0.7,0.3-1.4,0.6-2c0.4-1.1,1.3-1.9,2.6-2.1c0.8-0.2,1.7-0.3,2.6-0.3c1.1-0.1,2.2,0,3.4,0c0.3,0,0.6,0,0.9,0
		c0.4,0,0.6-0.3,0.6-0.7c0.1-0.7-0.2-1-0.9-1c-0.3,0-0.6,0-0.9,0c-8.5,0-16.9,0-25.4,0c-0.3,0-0.7,0-1,0c-0.4,0-0.6,0.2-0.6,0.7
		c0,0.3,0.1,0.6,0.1,0.9c0.3,0.1,0.6,0.2,0.9,0.2c0.8,0,1.6,0,2.3,0c0.9,0.1,1.8,0.2,2.7,0.3c1.3,0.2,2.2,1,2.7,2.2
		c0.3,0.8,0.5,1.7,0.6,2.6c0.2,2,0.3,4.1,0.3,6.1c0,10.1,0,20.1,0,30.2c0,2.9-0.2,5.8-0.3,8.7c0,0.5-0.1,0.9-0.2,1.4
		c-0.5,3-2.4,3.9-4.8,4.2c-0.2,0-0.4,0-0.6,0c-1,0.1-2,0.1-3.1,0.2c-0.5,0-0.7,0.2-0.7,0.7c0,0.3,0.1,0.5,0.2,0.7
		C275.6,326.1,323.9,326.1,325.2,325.9z M356.6,326c0.4-1.3,0.2-1.4-0.9-1.5c-0.2,0-0.5,0-0.7,0c-1.3-0.1-2.7-0.1-4-0.5
		c-1.4-0.4-2.4-1.3-2.9-2.6c-0.3-0.8-0.5-1.7-0.5-2.5c-0.1-2.7-0.2-5.3-0.3-8c0-9.1,0-18.1,0-27.2c0-3.2,0-6.5,0.3-9.7
		c0.1-1,0.3-2,0.6-2.9c0.4-1.3,1.4-2.1,2.7-2.3c0.9-0.2,1.8-0.2,2.7-0.3c0.8-0.1,1.7,0,2.5-0.1c0.6,0,0.7-0.2,0.8-0.8
		c0-0.2-0.1-0.5-0.1-0.6c-0.5-0.4-1-0.3-1.5-0.3c-8.1,0-16.2,0-24.3,0c-0.3,0-0.7,0-1,0c-0.4,0-0.6,0.3-0.6,0.9
		c0,0.5,0.2,0.8,0.6,0.8c0.7,0,1.5,0.1,2.2,0.1c1,0,2,0.1,3,0.3c1.7,0.3,2.7,1.3,3.1,2.8c0.2,0.5,0.3,1,0.3,1.5
		c0.1,1.8,0.3,3.5,0.3,5.3c0,12,0,23.9,0,35.9c0,1.8-0.2,3.5-0.3,5.3c0,0.5-0.2,1-0.3,1.5c-0.5,1.5-1.5,2.5-3.1,2.9
		c-0.6,0.1-1.1,0.3-1.7,0.3c-1,0.1-2,0.1-3,0.2c-0.3,0-0.6,0.1-0.9,0.2c-0.2,0.5-0.3,0.9,0.1,1.3C330.7,326.1,354.8,326.2,356.6,326
		z"/>
	<path d="M71,330.5c-0.7,0.3-1.1,0.5-1.5,0.8c-2.5,1.4-4.6,3.2-6.3,5.4c-0.3,0.3-0.5,0.7-0.8,1c-0.9,1-2.1,1.3-3.3,0.9
		c-1.3-0.5-2-1.4-2.1-2.7c-0.1-1,0-2,0-3c0.3-5.3,1.3-10.5,3.4-15.5c2.8-6.9,7.1-12.7,12.5-17.8c4.9-4.5,10.4-8.2,16.4-11.2
		c4.8-2.4,9.8-4.4,14.9-6c0.3-0.1,0.6-0.2,1.1-0.4c-0.4-0.2-0.7-0.4-1-0.5c-2.5-0.8-5-1.2-7.6-1.4c-3.7-0.3-7.4-0.3-11.1,0.2
		c-0.3,0-0.7,0.1-1,0.1c-1.3,0-2.3-0.6-2.8-1.7c-0.6-1.2-0.4-2.3,0.4-3.3c0.2-0.3,0.5-0.5,0.9-0.8c5-3.8,10.4-6.6,16.6-8
		c4.5-1.1,9-1.3,13.6-0.9c8.5,0.9,16.2,4,23.4,8.5c0.9,0.5,1.7,1.1,2.5,1.7c0.3,0.2,0.6,0.4,0.9,0.6c0.5-0.3,1-0.7,1.5-1
		c6-4.1,12.6-7.2,19.7-8.8c11.2-2.5,21.7-0.9,31.5,5c1.6,1,3,2,4.5,3.1c0.9,0.7,1.4,1.6,1.3,2.7c-0.1,1.6-1.3,2.9-3,2.9
		c-0.4,0-0.8,0-1.2-0.1c-3.7-0.5-7.4-0.5-11.1-0.2c-2.2,0.1-4.4,0.5-6.6,1.1c-0.6,0.2-1.2,0.4-2,0.7c0.5,0.2,0.7,0.4,1,0.5
		c6.1,1.9,11.9,4.3,17.5,7.3c6,3.3,11.5,7.2,16.3,12.2c6.2,6.4,10.4,13.9,12.4,22.5c0.8,3.5,1.2,7.1,1.2,10.7c0,0.5,0,1-0.2,1.4
		c-0.3,1.2-1.1,1.9-2.3,2.2c-1.2,0.3-2.2-0.1-3-1c-0.4-0.4-0.7-0.9-1.1-1.4c-1.7-2.2-3.8-3.9-6.3-5.2c-0.3-0.1-0.5-0.3-0.8-0.4
		c-0.1,0-0.2,0-0.3,0.1c0,0.3,0.1,0.5,0.1,0.8c1.3,5,2.4,10,3.2,15c0.7,4.5,1.3,8.9,1.6,13.4c0.4,4.8,0.5,9.7,0.2,14.5
		c-0.4,8.4-1.7,16.6-4.7,24.5c-0.7,1.8-1.5,3.6-2.3,5.4c-0.5,1.2-1.5,1.8-2.9,1.8c-1.2,0-2.1-0.6-2.7-1.6c-0.2-0.4-0.4-0.9-0.5-1.3
		c-1-2.5-2.4-4.9-4.2-7c-0.2-0.2-0.4-0.4-0.6-0.6c-0.1-0.1-0.2-0.1-0.4-0.1c-0.3,0.4-0.6,0.8-0.8,1.3c-6.2,9.8-13.2,19-21.1,27.5
		c-5.9,6.4-12.3,12.3-19.5,17.2c-4.1,2.8-8.3,5.2-12.9,7.1c-0.5,0.2-1,0.4-1.5,0.5c-0.7,0.1-1.4-0.1-2.1-0.4
		c-3.9-1.6-7.5-3.6-11-5.8c-6-3.9-11.5-8.5-16.6-13.4C104,423,97.9,415.7,92.3,408c-2.7-3.7-5.4-7.6-7.8-11.5
		c-0.2-0.3-0.4-0.6-0.6-0.9c-0.4,0-0.6,0.2-0.8,0.4c-2,2.2-3.4,4.7-4.5,7.4c-0.1,0.4-0.2,0.7-0.4,1.1c-0.5,1-1.4,1.6-2.5,1.7
		c-1.2,0.1-2.2-0.4-2.8-1.4c-0.3-0.4-0.5-0.9-0.7-1.4c-2.3-4.9-3.9-10-4.9-15.3c-1.6-8.1-2-16.2-1.6-24.4c0.5-10.8,2.3-21.3,5-31.7
		C70.7,331.7,70.8,331.3,71,330.5z M167.8,375.8c-0.4-0.1-0.7-0.2-0.9-0.3c-1.9-0.8-2.7-2.8-1.6-4.6c0.2-0.3,0.4-0.6,0.7-0.9
		c5-6.7,10-13.3,14.9-20c0.4-0.5,0.8-1,1.1-1.5c0.6-0.9,1-2,0.9-3.1c0-0.7,0-1.3-0.1-2c-0.2-1.5-0.5-3-0.8-4.5
		c-1.1-4.9-2.8-9.6-5.5-13.9c-3.5-5.6-8.3-9.7-14.6-12.1c-4.2-1.6-8.5-2.2-13-2.3c-2.2,0-4.5,0.2-6.7,0.3c-1.4,0.1-2.8,0.1-4.2,0
		c-2.2-0.2-4.5-0.4-6.7-0.3c-2.5,0-5,0.3-7.5,0.8c-7.3,1.5-13.3,4.9-17.9,10.7c-2.5,3.1-4.3,6.6-5.7,10.4c-1.4,3.8-2.2,7.6-2.7,11.6
		c-0.2,1.8,0.2,3.4,1.2,4.8c1.9,2.5,3.7,5.1,5.6,7.6c3.4,4.5,6.7,8.9,10.1,13.4c0.2,0.3,0.5,0.6,0.7,0.9c1.1,1.8,0.3,3.8-1.6,4.6
		c-0.3,0.1-0.6,0.2-0.9,0.4c0,6.6,0,13.2,0,19.7c0.3,0.2,0.5,0.5,0.8,0.7c3.6,2.9,7.3,5.8,10.9,8.7c0.2,0.2,0.4,0.3,0.6,0.4
		c0.3,0.3,0.7,0.4,1.1,0.2c0.2-0.1,0.4-0.2,0.7-0.3c3.2-1.3,6.4-2.5,9.6-3.8c0.3-0.1,0.6-0.3,0.8-0.4c0.2-1.7,0.2-5.9-0.1-6.8
		c0,0-0.1-0.1-0.1-0.1c-0.3,0-0.7,0-1,0c-2-0.1-3.9-0.6-5.6-1.7c-0.7-0.5-1.3-1-1.6-1.8c-0.6-1.1-0.8-2.2-0.6-3.4
		c0.9-5.9,5.1-10.1,10.4-11.4c1.3-0.3,2.5-0.3,3.7,0c5.5,1.3,9.9,5.8,10.5,11.9c0.2,1.9-0.6,3.6-2.3,4.8c-1.8,1.1-3.7,1.6-5.8,1.6
		c-0.3,0-0.6,0-0.9,0.1c-0.2,1.7-0.2,5.8,0.1,7c3.8,1.5,7.6,3.1,11.4,4.5c1.1-0.7,12-9.4,12.9-10.3
		C167.8,389,167.8,382.4,167.8,375.8z M167.1,404.5c-0.6,0.2-0.9,0.6-1.3,0.9c-2.1,1.6-4.1,3.3-6.2,4.9c-0.8,0.6-1.2,1.4-1.4,2.4
		c-0.3,1.9-0.7,3.8-1.1,5.7c-1.4,6.1-6.9,9.7-12.1,9.6c-3.2,0-6.4,0-9.6,0c-1.8,0-3.6-0.4-5.2-1.2c-3.9-1.9-6.1-5-7-9.1
		c-0.4-1.9-0.8-3.8-1.1-5.7c-0.1-0.5-0.3-0.9-0.7-1.2c-2.5-1.9-4.9-3.9-7.3-5.8c-0.1-0.1-0.3-0.1-0.5-0.2c-0.2,0.6-0.1,1.1,0,1.6
		c0.3,1.5,0.5,3.1,0.8,4.6c1.2,6,3,11.9,5.4,17.5c0.3,0.7,0.7,1.3,1.3,1.8c3.9,3.5,8.2,6.6,12.8,9.2c1.8,1,3.7,1.9,5.5,2.9
		c0.7,0.4,1.3,0.4,1.9,0c0.7-0.4,1.4-0.7,2.1-1c5.9-3,11.3-6.7,16.2-11c0.6-0.5,1-1.1,1.3-1.8c0.6-1.5,1.2-3,1.8-4.5
		c2-5.4,3.3-10.9,4.3-16.5C166.9,406.5,167,405.5,167.1,404.5z M134.8,301.3c0.1-0.1,0.1-0.1,0.2-0.2c-0.1-0.2-0.2-0.5-0.4-0.7
		c-0.4-0.6-0.8-1.2-1.2-1.7c-1.6-2-3.5-3.6-5.7-5.1c-4.2-2.8-8.9-4.8-13.8-6.3c-1.1-0.3-2-0.4-3.1-0.1c-6.7,1.6-13.2,3.9-19.3,7
		c-5.7,2.9-10.9,6.4-15.4,10.9c-5.7,5.7-9.7,12.4-11.6,20.2c-0.1,0.5-0.2,1-0.3,1.6c0.2-0.1,0.4-0.1,0.5-0.1c2.5-1.6,5.1-2.7,8-3.2
		c0.4-0.1,0.8-0.3,1-0.7c0.2-0.3,0.3-0.6,0.5-0.9c1.7-2.8,3.5-5.6,5.6-8.1c3.9-4.8,8.5-9,13.9-12.2c5.5-3.3,11.5-5.2,18-5.6
		c1.7-0.1,3.5,0,5.2,0.1c1.8,0.2,3.6,0.4,5.3,0.8c3.9,0.8,7.5,2.1,11.1,3.8C133.8,300.9,134.3,301.1,134.8,301.3z M216.1,326.8
		c0-0.4,0-0.6-0.1-0.8c-1.1-5-3.1-9.6-5.9-13.8c-3.6-5.4-8.3-9.8-13.6-13.5c-4.8-3.3-9.9-5.8-15.3-7.9c-3.8-1.5-7.8-2.7-11.8-3.6
		c-0.9-0.2-1.7-0.3-2.6,0c-4.2,1.3-8.2,2.9-12,5.1c-2.4,1.4-4.6,3-6.5,5c-1.1,1.1-2,2.3-2.8,3.6c-0.1,0.2-0.3,0.4,0,0.6
		c0.1,0,0.1,0,0.2,0c0.7-0.3,1.3-0.6,2-0.9c5.3-2.4,10.9-3.9,16.8-4.3c3.1-0.2,6.1,0,9.1,0.6c5.4,1,10.3,3.1,14.8,6.1
		c5,3.3,9.3,7.5,13,12.2c1.9,2.4,3.6,4.9,5.1,7.6c0.3,0.6,0.7,1,1.4,1.1c2.6,0.4,5,1.4,7.3,2.8C215.3,326.5,215.6,326.6,216.1,326.8
		z M176.3,367c0.2,0.2,0.4,0.5,0.6,0.7c2.2,2.1,4,4.4,5.5,6.9c3.1,5.1,5,10.7,6.1,16.5c0.2,1.2,0.4,2.4,0.7,3.8
		c0.3-0.3,0.4-0.5,0.6-0.7c0.6-0.9,1.1-1.8,1.7-2.7c0.7-1,0.9-2,0.8-3.2c-0.2-2.6-0.2-5.1-0.4-7.7c-0.2-2.6-0.4-5.3-0.7-7.9
		c-0.4-3.6-0.9-7.1-1.7-10.7c-0.6-2.9-1.3-5.7-2.3-8.5c-0.1-0.3-0.1-0.6-0.5-0.6C185.1,354.8,176.8,365.9,176.3,367z M91.2,394.8
		c0.2-1,0.3-1.7,0.4-2.4c0.7-4.9,2.1-9.5,4.2-14c2-4.1,4.4-7.9,7.9-11c0.2-0.2,0.3-0.4,0.4-0.6c-3.5-4.6-6.9-9.1-10.3-13.7
		c0-0.1-0.2-0.1-0.3-0.1c-0.1,0.3-0.3,0.6-0.4,0.9c-0.5,1.8-1.1,3.5-1.5,5.3c-1.1,4.6-1.9,9.3-2.4,14c-0.4,3.6-0.8,7.2-0.9,10.8
		c0,0.5-0.1,0.9-0.1,1.4c-0.1,1.3-0.1,2.7-0.1,4c0,0.4,0.1,0.8,0.3,1.2c0.7,1.2,1.5,2.3,2.2,3.5C90.6,394.4,90.8,394.5,91.2,394.8z"
		/>
	<path d="M513,356.1c-0.4,0.1-0.5,0.1-0.7,0.1c-79.2,0-158.4,0-237.7,0c-0.1,0-0.3-0.1-0.5-0.1c-0.1-0.2-0.2-0.3-0.2-0.5
		c0-2.7,0-5.4,0-8.1c0-0.2,0.1-0.4,0.1-0.6c0.3-0.1,0.7-0.2,1-0.2c0.5,0,1,0,1.5,0c78,0,156,0,234,0c0.6,0,1.3,0,1.9,0.1
		c0.4,0,0.6,0.2,0.6,0.6c0,0.2,0,0.5,0,0.7c0,2.3,0,4.6,0,6.8C513.1,355.3,513,355.7,513,356.1z"/>
	<path d="M493.5,402.5c1,0.1,2,0.3,3,0.4c2.7,0.4,5.2,1,7.7,2.1c2.9,1.3,5.3,3.2,7,5.9c1.3,2.1,2,4.3,2,6.7c0,1.5,0,3-0.5,4.5
		c-1.6,5.7-5.4,9.2-11.2,10.8c-1.8,0.5-3.7,0.7-5.6,0.9c-4.6,0.4-9.1,0.5-13.7,0.5c-5.7,0-11.4,0-17.1,0c-0.4,0-0.8,0-1.2,0
		c-0.7,0-0.9-0.3-0.9-1c0-0.5,0.2-0.7,0.7-0.7c0.9,0,1.8,0,2.6,0c0.9-0.1,1.8-0.1,2.7-0.3c1.8-0.4,3-1.6,3.4-3.3
		c0.2-0.7,0.3-1.4,0.3-2.1c0.1-2.4,0.2-4.7,0.2-7.1c0-10.2,0-20.4,0-30.6c0-2.3-0.1-4.6-0.2-6.8c0-0.6-0.1-1.1-0.2-1.7
		c-0.5-2.4-1.7-3.5-4.1-3.7c-1.3-0.1-2.5-0.2-3.8-0.3c-0.3,0-0.6-0.1-0.9-0.1c-0.1-0.3-0.2-0.5-0.2-0.8c0-0.4,0.2-0.6,0.6-0.6
		c0.1,0,0.2,0,0.3,0c2.2-0.1,4.4-0.2,6.6-0.2c4.2-0.1,8.4-0.2,12.7-0.3c1.8,0,3.7-0.1,5.5,0c3.8,0.2,7.5,0.7,11.1,2
		c2.2,0.8,4.2,1.8,6,3.5c2.1,2,3.1,4.4,3.3,7.1c0.1,1.6,0,3.1-0.4,4.7c-0.8,2.7-2.4,4.8-4.7,6.5c-2.3,1.6-4.9,2.5-7.6,3.2
		c-1,0.2-2.1,0.4-3.1,0.6C493.7,402,493.4,402,493.5,402.5z M481.7,403.8c0,0.3-0.1,0.7-0.1,1c0,6.5,0,13,0.1,19.5
		c0,1.1,0.1,2.3,0.3,3.4c0.3,2.1,1.2,4.2,4.5,4.7c3,0.4,5.9,0.3,8.8-0.6c4-1.2,6.6-3.7,7.8-7.6c0.4-1.3,0.6-2.6,0.8-3.9
		c0.3-2.5,0.1-5-0.5-7.5c-1.1-4.1-3.6-6.9-7.9-8.2c-0.2-0.1-0.5-0.1-0.7-0.2c-1.8-0.5-3.6-0.7-5.4-0.9c-1.9-0.2-3.9-0.2-5.8-0.2
		C482.9,403.3,482.3,403.3,481.7,403.8z M481.6,388.9c0,2.5,0,5,0,7.5c0,1.3,0,2.6,0,3.8c0,1.2,0.2,1.3,1.4,1.4c0.2,0,0.4,0,0.6,0
		c1.8-0.1,3.7-0.1,5.5-0.3c1.7-0.2,3.4-0.5,5.1-1.1c2.7-1,4.5-2.8,5.5-5.4c0.3-0.8,0.5-1.7,0.7-2.6c0.5-2.5,0.4-5,0-7.5
		c-0.7-3.9-3-6.6-6.9-7.9c-1.5-0.5-3.1-0.7-4.7-0.7c-1.8,0-3.6,0-5.4,0c-1.8,0-1.8,0-1.8,1.8C481.6,381.6,481.6,385.3,481.6,388.9z"
		/>
	<path d="M396.9,265.7c4,0.1,7.5,0.4,10.9,1.3c5.5,1.5,10.4,4.2,14.4,8.2c4,3.9,6.4,8.7,7.5,14.1c0.7,3.3,0.8,6.7,0.5,10.1
		c-0.4,6.4-2.6,12.2-6.9,17.2c-4.3,4.9-9.7,8.1-16.1,9.6c-2,0.5-4,0.7-6,0.9c-1.7,0.2-3.5,0.3-5.2,0.2c-6-0.2-11.7-1.4-16.9-4.5
		c-7.9-4.7-12.7-11.5-14.2-20.5c-0.4-2.3-0.6-4.7-0.5-7.1c0.2-4.2,0.9-8.4,2.7-12.3c2.3-5,6-8.8,10.6-11.8c4.1-2.7,8.6-4.2,13.5-4.9
		c0.7-0.1,1.3-0.2,2-0.2C394.7,265.8,396.1,265.7,396.9,265.7z M374.3,296.5c-0.1,3.5,0.2,6.9,0.9,10.3c0.6,2.9,1.5,5.7,2.9,8.3
		c1.9,3.5,4.6,6.2,8.3,8c2.3,1.1,4.7,1.8,7.2,2.1c2.5,0.3,4.9,0.4,7.4,0.1c5-0.6,9.3-2.6,12.7-6.3c2.5-2.7,4-5.9,5.1-9.3
		c1.2-4.1,1.6-8.3,1.7-12.5c0-1.5-0.1-2.9-0.2-4.4c-0.1-2.8-0.5-5.5-1.2-8.1c-0.9-3.6-2.4-6.9-4.8-9.8c-2.1-2.5-4.7-4.4-7.8-5.6
		c-3.2-1.2-6.6-1.6-10-1.6c-1.4,0-2.8,0.2-4.2,0.4c-5.8,0.9-10.3,3.9-13.5,8.8c-1.9,2.9-2.9,6.1-3.6,9.4
		C374.5,289.5,374.2,293,374.3,296.5z"/>
	<path d="M491.9,313.2c0-0.5,0.1-0.9,0.1-1.3c0-11.8,0-23.5,0-35.3c0-1-0.2-2.1-0.3-3.1c-0.2-1.5-1.1-2.6-2.4-3.4
		c-1.1-0.6-2.4-1.1-3.7-1.3c-1-0.2-1.9-0.3-2.9-0.3c-0.8,0-1-0.3-0.9-1.1c0-0.4,0.3-0.6,0.6-0.6c0.3,0,0.7,0,1,0
		c6.1,0,12.1,0,18.2,0c0.2,0,0.5,0,0.7,0c0.8,0,1,0.3,0.9,1.1c0,0.2-0.1,0.3-0.2,0.5c-1.2,0.3-2.4,0.5-3.6,0.8
		c-1.2,0.3-2.3,0.8-3.3,1.5c-1.1,0.8-1.8,1.9-2.1,3.3c-0.3,1.5-0.3,2.9-0.3,4.4c0,14.2,0,28.4,0,42.6c0,1.7,0,3.4,0,5.1
		c0,0.4-0.1,0.8-0.1,1.3c-0.8,0.3-1.5,0.3-2-0.4c-0.2-0.3-0.5-0.6-0.7-0.9c-13.5-17.5-27-35-40.6-52.5c-0.4-0.6-0.8-1.2-1.5-1.6
		c-0.1,0.2-0.3,0.4-0.3,0.6c0,0.4,0,0.9,0,1.3c0,13.3,0,26.7,0,40c0,1.7,0.2,3.3,0.3,5c0.1,1.3,0.8,2.4,1.8,3.3
		c1.7,1.4,3.8,2.1,6,2.2c0.8,0.1,1.6,0.1,2.4,0.3c0.3,0.4,0.3,0.8,0.1,1.3c-0.1,0.1-0.2,0.2-0.4,0.2c-0.4,0-0.9,0-1.3,0
		c-6.2,0-12.4,0-18.7,0c-0.5,0-1,0-1.6-0.1c-0.1-0.3-0.2-0.5-0.2-0.7c0-0.7,0.2-0.9,0.8-1c0.8-0.1,1.6-0.2,2.4-0.4
		c1.5-0.3,3-0.9,4.3-1.8c1.1-0.8,1.8-1.7,2-3c0-0.5,0.1-1,0.2-1.6c0-0.9,0-1.7,0-2.6c0-12.5,0-25,0-37.4c0-1.4-0.1-2.8-0.3-4.2
		c-0.1-0.8-0.4-1.6-0.7-2.3c-0.5-1.3-1.5-2.1-2.9-2.2c-0.9-0.1-1.8-0.2-2.7-0.3c-0.5,0-1.1,0-1.6,0c-0.4,0-0.6-0.3-0.6-0.6
		c-0.1-0.7,0.2-1,1-1.1c0.3,0,0.6,0,0.9,0c4.8,0,9.5,0,14.3,0c0.3,0,0.6,0,0.9,0c0.5,0,0.8,0.2,1.1,0.6c0.3,0.3,0.5,0.7,0.8,1
		c11.3,14.5,22.5,29.1,33.8,43.6C490.9,312.4,491.1,312.9,491.9,313.2z"/>
	<path d="M326.5,426.7c-0.6,0.1-0.9,0.5-1.2,0.9c-1.3,1.3-2.6,2.4-4.1,3.4c-3.2,2.1-6.7,3.4-10.5,4c-2.4,0.4-4.8,0.3-7.3,0.3
		c-3.2-0.1-6.4-0.7-9.4-1.9c-8.7-3.4-14.4-9.6-16.9-18.5c-1.1-3.7-1.4-7.6-1.1-11.4c0.3-5.2,1.7-10.2,4.1-14.9
		c3.8-7.3,9.8-11.9,17.9-13.9c3.2-0.8,6.5-1.1,9.8-0.8c6.8,0.5,12.7,3.1,17.6,7.9c0.3,0.3,0.6,0.5,0.9,0.8c0.2-0.3,0.5-0.6,0.6-0.9
		c0.8-1.7,1.4-3.5,1.7-5.4c0-0.2,0-0.4,0.1-0.6c0.1-0.6,0.5-0.9,1.2-0.7c0.2,0,0.5,0.3,0.5,0.4c0.1,0.4,0.1,0.8,0.1,1.3
		c0,2.7,0.1,5.4,0.1,8.1c0.1,3.5,0.2,6.9,0.2,10.4c0,0.4,0,0.9,0,1.3c0,0.3-0.2,0.5-0.6,0.6c-0.4,0.1-0.8-0.1-0.9-0.4
		c-0.1-0.2-0.1-0.5-0.2-0.7c-0.5-2.4-1.1-4.7-2-7c-0.1-0.3-0.2-0.6-0.4-0.9c-2.8-6.6-8.1-10.4-15.1-11.9c-1.8-0.4-3.5-0.6-5.3-0.5
		c-5.6,0.2-10.3,2.3-14,6.6c-2.5,2.9-4,6.2-5,9.9c-0.9,3.4-1.4,6.8-1.5,10.3c0,2-0.1,4.1,0,6.1c0.2,3.9,0.9,7.6,2.3,11.2
		c1.8,4.3,4.5,7.8,8.5,10.4c3,2,6.4,2.9,10,3c3.6,0.1,6.9-0.6,10.2-2c3.4-1.4,6-3.6,7.9-6.7c2.2-3.4,3.7-7.1,4.3-11.1
		c0-0.2,0.1-0.5,0.2-0.7c0.1-0.3,0.4-0.5,0.8-0.4c0.3,0,0.5,0.2,0.6,0.5c0,0.2,0.1,0.5,0.1,0.7c0,5.9,0,11.9,0,17.8
		c0,0.2,0,0.5,0,0.7c0,0.3-0.2,0.5-0.5,0.6c-0.5,0.1-0.9,0-1-0.4c-0.2-0.3-0.3-0.7-0.4-1.1c-0.4-1.3-1-2.6-1.8-3.7
		C327,427.2,326.7,426.9,326.5,426.7z"/>
	<path d="M438.9,375.1c1.7-0.2,18.3-0.1,19.5,0c0.4,0.3,0.2,0.8,0.1,1.3c-0.2,0.1-0.5,0.3-0.7,0.3c-0.8,0.2-1.5,0.2-2.3,0.4
		c-1.3,0.3-2.5,0.9-3.5,1.9c-1.2,1.1-1.9,2.5-2.1,4.1c-0.2,2-0.3,4.1-0.3,6.1c0,8.2,0,16.3,0,24.5c0,2.3-0.2,4.6-0.6,6.9
		c-0.2,1.6-0.9,3-1.6,4.4c-1.9,3.3-4.5,5.7-7.9,7.3c-2.7,1.3-5.6,2.2-8.6,2.6c-2.7,0.4-5.4,0.3-8.1,0.3c-2.8-0.1-5.6-0.6-8.3-1.5
		c-2-0.6-3.8-1.6-5.6-2.7c-3.8-2.4-6-5.8-6.9-10.1c-0.4-2.1-0.6-4.3-0.6-6.5c0-8.7,0-17.4,0-26.1c0-2.3,0-4.7-0.3-7
		c-0.1-0.7-0.3-1.4-0.5-2.1c-0.4-1.2-1.3-2-2.6-2.3c-1.4-0.3-2.8-0.4-4.2-0.5c-0.6,0-1.2,0-1.7-0.1c-0.5-0.5-0.4-0.9-0.2-1.4
		c0.5-0.2,1.1-0.1,1.7-0.1c7.9,0,15.7,0,23.6,0c0.3,0,0.7,0,1,0c0.8,0,1,0.2,0.9,1.1c0,0.1-0.1,0.2-0.2,0.3c-0.1,0-0.3,0.1-0.5,0.1
		c-1.3,0.1-2.6,0.2-3.9,0.3c-0.1,0-0.3,0-0.4,0c-2.3,0.3-3.5,1.3-4,3.5c-0.2,0.7-0.2,1.5-0.3,2.3c-0.4,4.6-0.2,9.3-0.2,13.9
		c0,3.9,0,7.9,0,11.8c0,3,0.1,6,0.3,9c0.1,1.6,0.3,3.1,0.6,4.7c0.3,1.9,1.2,3.5,2.4,5c2.4,2.8,5.5,4.6,9.1,5.2
		c4.3,0.8,8.5,0.7,12.7-0.5c2.4-0.7,4.6-1.7,6.6-3.2c3.6-2.6,5.5-6.1,6-10.5c0.4-3.3,0.3-6.6,0.4-10c0.1-5.2,0-10.3,0-15.5
		c0-2.7-0.1-5.3-0.2-8c0-0.9-0.2-1.9-0.4-2.8c-0.4-1.9-1.7-3.3-3.5-4.1c-1.1-0.5-2.2-0.7-3.4-0.9c-0.2,0-0.5,0-0.7-0.1
		c-0.3-0.1-0.6-0.2-0.9-0.4C438.6,376.2,438.6,375.9,438.9,375.1z"/>
	<path d="M368.8,376.5c-0.6,0-1.2,0-1.8,0c-1.5,0.1-3,0.1-4.5,0.3c-2.3,0.2-3.5,1.4-3.9,3.6c-0.2,0.9-0.3,1.8-0.3,2.7
		c-0.4,6.6-0.2,13.3-0.2,19.9c0,5.6,0,11.3,0,16.9c0,2.6,0.1,5.1,0.2,7.7c0,0.5,0.1,0.9,0.2,1.4c0.3,1.5,1.3,2.5,2.7,2.9
		c1.1,0.3,2.3,0.6,3.4,0.6c3.5,0.1,7.1,0.1,10.6,0c1.4,0,2.9-0.3,4.3-0.6c1.6-0.3,3-1.2,4.1-2.3c1.5-1.4,2.7-3,3.6-4.8
		c1-2,1.8-4.1,2.5-6.2c0.1-0.4,0.3-0.9,0.5-1.3c0.6-0.2,1.1-0.2,1.6,0c0.3,0.5,0.2,1,0.2,1.4c-0.4,5.1,0,10.2-0.6,15.3
		c-0.3,0.1-0.5,0.2-0.8,0.2c-0.4,0-0.8,0-1.2,0c-15.8,0-31.6,0-47.4,0c-0.5,0-1,0-1.5,0c-0.4,0-0.6-0.3-0.6-0.8
		c0-0.5,0.2-0.8,0.6-0.8c0.5,0,1,0,1.5,0c1,0,2,0,3-0.3c2.5-0.5,3.9-1.9,4.2-4.4c0.2-1.4,0.3-2.8,0.3-4.3c0-12.8,0-25.6,0-38.4
		c0-1.4-0.2-2.8-0.3-4.3c0-0.2-0.1-0.4-0.1-0.6c-0.6-2.4-1.8-3.3-4.1-3.5c-1.3-0.2-2.6-0.2-3.9-0.3c-0.2,0-0.4,0-0.6,0
		c-0.4-0.1-0.5-0.3-0.5-0.7c0-0.4,0.2-0.7,0.5-0.7c0.3,0,0.7,0,1,0c8.6,0,17.2,0,25.8,0c0.1,0,0.3,0,0.4,0
		C369.1,375,369.2,375.1,368.8,376.5z"/>
	<path d="M325.2,325.9c-1.3,0.2-49.6,0.2-51.1,0c-0.1-0.2-0.2-0.5-0.2-0.7c0-0.5,0.2-0.7,0.7-0.7c1-0.1,2-0.1,3.1-0.2
		c0.2,0,0.4,0,0.6,0c2.3-0.3,4.2-1.2,4.8-4.2c0.1-0.5,0.2-0.9,0.2-1.4c0.1-2.9,0.2-5.8,0.3-8.7c0-10.1,0-20.1,0-30.2
		c0-2-0.1-4.1-0.3-6.1c-0.1-0.9-0.3-1.8-0.6-2.6c-0.4-1.2-1.4-2-2.7-2.2c-0.9-0.2-1.8-0.3-2.7-0.3c-0.8-0.1-1.6,0-2.3,0
		c-0.3,0-0.6-0.1-0.9-0.2c0-0.3-0.1-0.6-0.1-0.9c0-0.4,0.2-0.6,0.6-0.7c0.3,0,0.7,0,1,0c8.5,0,16.9,0,25.4,0c0.3,0,0.6,0,0.9,0
		c0.7,0,1,0.3,0.9,1c0,0.4-0.2,0.6-0.6,0.7c-0.3,0-0.6,0-0.9,0c-1.1,0-2.2,0-3.4,0c-0.9,0-1.7,0.1-2.6,0.3c-1.2,0.3-2.1,1-2.6,2.1
		c-0.3,0.7-0.5,1.4-0.6,2c-0.2,1.7-0.3,3.3-0.3,5c0,12.7,0,25.3,0,38c0,1.4,0.1,2.8,0.3,4.3c0.2,1.9,1.3,3,3.1,3.6
		c0.6,0.2,1.3,0.3,2,0.4c3.7,0.3,7.5,0.3,11.2,0.1c1.6-0.1,3.2-0.2,4.8-0.6c1.7-0.4,3.1-1.2,4.3-2.3c1.4-1.3,2.5-2.7,3.4-4.4
		c1.1-2,1.9-4.2,2.6-6.3c0.1-0.4,0.2-0.7,0.3-1.1c0.2-0.7,0.5-0.8,1.2-0.8c0.4,0,0.6,0.2,0.7,0.6c0,0.4,0,0.8,0,1.1
		c0,1.7,0,3.3-0.1,5c-0.1,3.2-0.2,6.4-0.3,9.5C325.3,325.4,325.3,325.6,325.2,325.9z"/>
	<path d="M356.6,326c-1.9,0.2-25.9,0.1-27,0c-0.3-0.4-0.3-0.8-0.1-1.3c0.3-0.1,0.6-0.2,0.9-0.2c1-0.1,2-0.1,3-0.2
		c0.6-0.1,1.2-0.2,1.7-0.3c1.6-0.4,2.6-1.4,3.1-2.9c0.2-0.5,0.3-1,0.3-1.5c0.1-1.8,0.3-3.5,0.3-5.3c0-12,0-23.9,0-35.9
		c0-1.8-0.2-3.5-0.3-5.3c0-0.5-0.2-1-0.3-1.5c-0.5-1.5-1.5-2.5-3.1-2.8c-1-0.2-2-0.3-3-0.3c-0.7,0-1.5,0-2.2-0.1
		c-0.4,0-0.6-0.3-0.6-0.8c0-0.5,0.2-0.8,0.6-0.9c0.3,0,0.7,0,1,0c8.1,0,16.2,0,24.3,0c0.5,0,1-0.1,1.5,0.3c0,0.2,0.1,0.4,0.1,0.6
		c0,0.6-0.2,0.8-0.8,0.8c-0.8,0-1.7,0-2.5,0.1c-0.9,0.1-1.8,0.2-2.7,0.3c-1.3,0.2-2.3,1-2.7,2.3c-0.3,0.9-0.5,1.9-0.6,2.9
		c-0.3,3.2-0.3,6.4-0.3,9.7c0,9.1,0,18.1,0,27.2c0,2.7,0.1,5.3,0.3,8c0,0.8,0.3,1.7,0.5,2.5c0.5,1.3,1.5,2.2,2.9,2.6
		c1.3,0.4,2.7,0.4,4,0.5c0.2,0,0.5,0,0.7,0C356.9,324.5,357,324.7,356.6,326z"/>
	<path class="st0" d="M167.8,375.8c0,6.7,0,13.2,0,19.7c-0.9,0.9-11.7,9.6-12.9,10.3c-3.8-1.5-7.6-3-11.4-4.5
		c-0.2-1.2-0.2-5.3-0.1-7c0.3,0,0.6-0.1,0.9-0.1c2.1,0,4-0.5,5.8-1.6c1.8-1.1,2.5-2.8,2.3-4.8c-0.6-6.1-5-10.6-10.5-11.9
		c-1.3-0.3-2.5-0.3-3.7,0c-5.3,1.3-9.5,5.5-10.4,11.4c-0.2,1.2,0,2.4,0.6,3.4c0.4,0.7,0.9,1.3,1.6,1.8c1.7,1.1,3.6,1.6,5.6,1.7
		c0.3,0,0.7,0,1,0c0,0,0.1,0,0.1,0.1c0.2,1,0.3,5.1,0.1,6.8c-0.3,0.1-0.5,0.3-0.8,0.4c-3.2,1.3-6.4,2.5-9.6,3.8
		c-0.2,0.1-0.4,0.2-0.7,0.3c-0.4,0.2-0.8,0.1-1.1-0.2c-0.2-0.2-0.4-0.3-0.6-0.4c-3.6-2.9-7.3-5.8-10.9-8.7c-0.3-0.2-0.5-0.4-0.8-0.7
		c0-6.6,0-13.1,0-19.7c0.3-0.1,0.6-0.2,0.9-0.4c2-0.8,2.7-2.8,1.6-4.6c-0.2-0.3-0.4-0.6-0.7-0.9c-3.4-4.5-6.7-8.9-10.1-13.4
		c-1.9-2.5-3.8-5.1-5.6-7.6c-1.1-1.4-1.5-3-1.2-4.8c0.5-4,1.4-7.9,2.7-11.6c1.4-3.7,3.2-7.2,5.7-10.4c4.6-5.8,10.6-9.2,17.9-10.7
		c2.5-0.5,5-0.7,7.5-0.8c2.2,0,4.5,0.1,6.7,0.3c1.4,0.1,2.8,0.1,4.2,0c2.2-0.2,4.5-0.4,6.7-0.3c4.4,0.1,8.8,0.7,13,2.3
		c6.3,2.4,11.1,6.5,14.6,12.1c2.7,4.3,4.4,9,5.5,13.9c0.3,1.5,0.6,3,0.8,4.5c0.1,0.7,0.1,1.3,0.1,2c0,1.1-0.3,2.2-0.9,3.1
		c-0.3,0.5-0.7,1-1.1,1.5c-5,6.7-10,13.3-14.9,20c-0.2,0.3-0.5,0.6-0.7,0.9c-1.1,1.8-0.3,3.8,1.6,4.6
		C167.1,375.6,167.4,375.6,167.8,375.8z M146.8,357.7c0.2,0.6,0.4,1,0.6,1.5c3.4,7.4,12.7,9.5,18.9,4.6c4.4-3.5,5.9-9.5,3.6-14.7
		c-0.2-0.4-0.4-0.9-0.6-1.3c0.3-0.3,0.7-0.6,0.9-0.9c1.4-1.6,0.8-4.1-1.2-4.9c-0.5-0.2-1-0.2-1.6-0.2c-3.3,0.1-6.5,0.9-9.5,2.5
		c-2.3,1.3-4.1,3-5.3,5.3c-0.1,0.2-0.2,0.3-0.3,0.5c-0.8,1.4-2.3,2-3.9,1.5c-0.5-0.1-0.9-0.3-1.4-0.5c-0.6-0.2-1.1-0.2-1.7-0.1
		c-1.3,0.4-2.2,1.4-2.3,2.6c-0.1,1.4,0.5,2.6,1.7,3.2C145.5,357.2,146.1,357.4,146.8,357.7z M133.5,357.7c0.7-0.3,1.4-0.5,2-0.8
		c1.5-0.8,2-2.6,1.3-4.1c-0.7-1.5-2.6-2.1-3.9-1.6c-0.4,0.2-0.9,0.4-1.4,0.5c-1.4,0.4-2.9-0.2-3.7-1.4c-0.2-0.2-0.3-0.5-0.4-0.8
		c-0.9-1.7-2.2-3.2-3.8-4.3c-0.6-0.4-1.3-0.9-2-1.2c-2.8-1.4-5.7-2.1-8.8-2.2c-0.5,0-1.1,0-1.6,0.2c-2,0.7-2.7,3.2-1.3,4.8
		c0.3,0.3,0.7,0.6,1,0.8c-0.3,0.6-0.5,1-0.7,1.4c-1.7,4.2-1.5,8.3,1.2,12.1c2.8,4,6.9,5.8,11.9,5.1c4.6-0.6,7.8-3.2,9.6-7.4
		C133.2,358.5,133.4,358.1,133.5,357.7z"/>
	<path class="st0" d="M167.1,404.5c-0.1,1.1-0.2,2-0.4,2.9c-0.9,5.6-2.3,11.1-4.3,16.5c-0.6,1.5-1.2,3-1.8,4.5
		c-0.3,0.7-0.7,1.3-1.3,1.8c-4.9,4.3-10.3,8-16.2,11c-0.7,0.3-1.4,0.7-2.1,1c-0.7,0.4-1.3,0.4-1.9,0c-1.8-1-3.7-1.9-5.5-2.9
		c-4.6-2.6-8.8-5.7-12.8-9.2c-0.6-0.5-1-1.1-1.3-1.8c-2.4-5.7-4.2-11.5-5.4-17.5c-0.3-1.5-0.6-3.1-0.8-4.6c-0.1-0.5-0.2-1,0-1.6
		c0.2,0.1,0.4,0.1,0.5,0.2c2.5,1.9,4.9,3.9,7.3,5.8c0.4,0.3,0.6,0.7,0.7,1.2c0.4,1.9,0.8,3.8,1.1,5.7c0.8,4.1,3.1,7.2,7,9.1
		c1.6,0.8,3.4,1.2,5.2,1.2c3.2,0,6.4,0,9.6,0c5.3,0.1,10.7-3.5,12.1-9.6c0.4-1.9,0.8-3.8,1.1-5.7c0.2-1,0.6-1.7,1.4-2.4
		c2.1-1.6,4.2-3.3,6.2-4.9C166.2,405,166.5,404.7,167.1,404.5z"/>
	<path class="st0" d="M134.8,301.3c-0.5-0.2-1-0.4-1.4-0.6c-3.6-1.7-7.2-2.9-11.1-3.8c-1.8-0.4-3.5-0.6-5.3-0.8
		c-1.7-0.2-3.5-0.2-5.2-0.1c-6.5,0.4-12.4,2.3-18,5.6c-5.4,3.2-9.9,7.4-13.9,12.2c-2.1,2.6-4,5.3-5.6,8.1c-0.2,0.3-0.3,0.6-0.5,0.9
		c-0.2,0.4-0.6,0.7-1,0.7c-2.9,0.5-5.6,1.6-8,3.2c-0.1,0.1-0.3,0.1-0.5,0.1c0.1-0.6,0.2-1.1,0.3-1.6c1.9-7.8,5.8-14.5,11.6-20.2
		c4.5-4.5,9.7-8,15.4-10.9c6.1-3.1,12.6-5.4,19.3-7c1.1-0.3,2.1-0.2,3.1,0.1c4.9,1.5,9.5,3.5,13.8,6.3c2.1,1.4,4.1,3.1,5.7,5.1
		c0.4,0.6,0.8,1.2,1.2,1.7c0.2,0.2,0.3,0.5,0.4,0.7C134.9,301.1,134.9,301.2,134.8,301.3z"/>
	<path class="st0" d="M216.1,326.8c-0.4-0.2-0.7-0.3-1-0.5c-2.2-1.4-4.6-2.4-7.3-2.8c-0.7-0.1-1.1-0.5-1.4-1.1
		c-1.5-2.7-3.2-5.2-5.1-7.6c-3.7-4.7-7.9-8.9-13-12.2c-4.5-3-9.4-5.1-14.8-6.1c-3-0.6-6.1-0.8-9.1-0.6c-5.9,0.4-11.4,1.9-16.8,4.3
		c-0.7,0.3-1.3,0.6-2,0.9c0,0-0.1,0-0.2,0c-0.3-0.2-0.1-0.4,0-0.6c0.8-1.3,1.7-2.5,2.8-3.6c1.9-2,4.2-3.6,6.5-5
		c3.8-2.2,7.8-3.8,12-5.1c0.9-0.3,1.7-0.2,2.6,0c4,0.9,7.9,2.2,11.8,3.6c5.4,2.1,10.5,4.7,15.3,7.9c5.4,3.7,10,8.1,13.6,13.5
		c2.8,4.3,4.8,8.9,5.9,13.8C216.1,326.2,216,326.4,216.1,326.8z"/>
	<path class="st0" d="M176.3,367c0.5-1,8.8-12.2,10.4-13.9c0.4,0,0.4,0.3,0.5,0.6c1,2.8,1.7,5.6,2.3,8.5c0.7,3.5,1.3,7.1,1.7,10.7
		c0.3,2.6,0.5,5.3,0.7,7.9c0.2,2.6,0.2,5.1,0.4,7.7c0.1,1.2-0.1,2.2-0.8,3.2c-0.6,0.8-1.1,1.8-1.7,2.7c-0.1,0.2-0.3,0.3-0.6,0.7
		c-0.2-1.4-0.4-2.6-0.7-3.8c-1.1-5.8-3-11.4-6.1-16.5c-1.5-2.5-3.3-4.9-5.5-6.9C176.7,367.5,176.5,367.2,176.3,367z"/>
	<path class="st0" d="M91.2,394.8c-0.3-0.3-0.5-0.5-0.6-0.6c-0.7-1.2-1.5-2.3-2.2-3.5c-0.2-0.4-0.4-0.8-0.3-1.2
		c0.1-1.3,0.1-2.7,0.1-4c0-0.5,0.1-0.9,0.1-1.4c0.1-3.6,0.5-7.2,0.9-10.8c0.5-4.7,1.3-9.4,2.4-14c0.4-1.8,1-3.6,1.5-5.3
		c0.1-0.3,0.3-0.6,0.4-0.9c0.2,0,0.3,0,0.3,0.1c3.4,4.5,6.9,9.1,10.3,13.7c-0.2,0.2-0.3,0.4-0.4,0.6c-3.4,3.1-5.9,6.9-7.9,11
		c-2.1,4.5-3.5,9.1-4.2,14C91.5,393.1,91.3,393.8,91.2,394.8z"/>
	<path class="st0" d="M481.7,403.8c0.6-0.5,1.2-0.4,1.8-0.4c1.9,0,3.9,0,5.8,0.2c1.8,0.2,3.6,0.4,5.4,0.9c0.2,0.1,0.5,0.1,0.7,0.2
		c4.2,1.3,6.8,4.1,7.9,8.2c0.6,2.4,0.8,4.9,0.5,7.5c-0.2,1.3-0.4,2.6-0.8,3.9c-1.3,3.8-3.8,6.4-7.8,7.6c-2.9,0.8-5.8,1-8.8,0.6
		c-3.2-0.4-4.1-2.5-4.5-4.7c-0.2-1.1-0.2-2.3-0.3-3.4c0-6.5,0-13-0.1-19.5C481.6,404.4,481.7,404,481.7,403.8z"/>
	<path class="st0" d="M481.6,388.9c0-3.7,0-7.3,0-11c0-1.7,0-1.8,1.8-1.8c1.8,0,3.6,0,5.4,0c1.6,0,3.2,0.3,4.7,0.7
		c3.9,1.2,6.2,3.9,6.9,7.9c0.5,2.5,0.5,5,0,7.5c-0.2,0.9-0.4,1.8-0.7,2.6c-1,2.6-2.8,4.4-5.5,5.4c-1.6,0.6-3.4,1-5.1,1.1
		c-1.8,0.2-3.7,0.2-5.5,0.3c-0.2,0-0.4,0-0.6,0c-1.3-0.1-1.4-0.2-1.4-1.4c0-1.3,0-2.6,0-3.8C481.6,394,481.6,391.5,481.6,388.9z"/>
	<path class="st0" d="M374.3,296.5c-0.1-3.5,0.2-6.9,0.9-10.3c0.7-3.3,1.8-6.5,3.6-9.4c3.2-4.9,7.7-7.8,13.5-8.8
		c1.4-0.2,2.8-0.4,4.2-0.4c3.4,0,6.8,0.3,10,1.6c3.1,1.2,5.7,3.1,7.8,5.6c2.4,2.9,3.9,6.2,4.8,9.8c0.7,2.7,1.1,5.4,1.2,8.1
		c0,1.5,0.2,2.9,0.2,4.4c-0.1,4.2-0.5,8.4-1.7,12.5c-1,3.5-2.6,6.6-5.1,9.3c-3.4,3.7-7.6,5.7-12.7,6.3c-2.5,0.3-4.9,0.2-7.4-0.1
		c-2.5-0.3-4.9-1-7.2-2.1c-3.6-1.8-6.3-4.5-8.3-8c-1.4-2.6-2.4-5.4-2.9-8.3C374.5,303.4,374.2,299.9,374.3,296.5z"/>
	<path d="M146.8,357.7c-0.7-0.3-1.3-0.5-1.8-0.8c-1.2-0.6-1.9-1.8-1.7-3.2c0.1-1.3,1-2.3,2.3-2.6c0.6-0.2,1.1-0.1,1.7,0.1
		c0.5,0.2,0.9,0.4,1.4,0.5c1.6,0.4,3-0.1,3.9-1.5c0.1-0.2,0.2-0.3,0.3-0.5c1.2-2.3,3-4.1,5.3-5.3c2.9-1.6,6.1-2.4,9.5-2.5
		c0.5,0,1.1,0,1.6,0.2c2,0.8,2.6,3.3,1.2,4.9c-0.3,0.3-0.6,0.6-0.9,0.9c0.2,0.5,0.4,0.9,0.6,1.3c2.3,5.1,0.8,11.2-3.6,14.7
		c-6.3,4.9-15.5,2.8-18.9-4.6C147.2,358.7,147,358.2,146.8,357.7z M162.3,349.3c-0.2,0-0.2,0-0.3,0c-0.1,0-0.3,0.1-0.4,0.1
		c-1.5,0.7-2.7,1.8-3.4,3.3c-0.9,1.8-2.3,3.2-4.1,4.1c-0.2,0.1-0.4,0.3-0.6,0.4c1.1,2.1,3.4,3.2,5.7,3c2.6-0.3,4.6-2,5.4-4.4
		C165.3,353.3,164.5,351,162.3,349.3z"/>
	<path d="M133.5,357.7c-0.2,0.4-0.3,0.8-0.5,1.2c-1.9,4.1-5,6.8-9.6,7.4c-4.9,0.7-9-1.1-11.9-5.1c-2.7-3.8-2.9-7.9-1.2-12.1
		c0.2-0.4,0.4-0.9,0.7-1.4c-0.3-0.3-0.7-0.5-1-0.8c-1.4-1.6-0.7-4.1,1.3-4.8c0.5-0.2,1-0.2,1.6-0.2c3.1,0.1,6.1,0.8,8.8,2.2
		c0.7,0.3,1.3,0.8,2,1.2c1.6,1.1,2.9,2.6,3.8,4.3c0.1,0.3,0.2,0.5,0.4,0.8c0.8,1.2,2.2,1.8,3.7,1.4c0.5-0.1,0.9-0.3,1.4-0.5
		c1.3-0.6,3.2,0,3.9,1.6c0.7,1.5,0.2,3.3-1.3,4.1C134.9,357.1,134.3,357.3,133.5,357.7z M126.8,357.3c-0.3-0.2-0.6-0.4-0.9-0.6
		c-1.5-0.9-2.7-2.1-3.6-3.7c-0.2-0.3-0.3-0.6-0.5-0.9c-0.7-1.2-1.8-2.1-3.1-2.8c-0.5-0.2-0.8-0.2-1.2,0.2c-1.5,1.4-2.2,3.1-2.1,5.1
		c0.2,2.5,2.1,4.8,4.7,5.4C122.9,360.7,125.3,359.7,126.8,357.3z"/>
	<path class="st0" d="M162.3,349.3c2.2,1.7,3,4.1,2.3,6.6c-0.7,2.4-2.8,4.1-5.4,4.4c-2.3,0.2-4.6-0.9-5.7-3c0.2-0.1,0.4-0.3,0.6-0.4
		c1.8-1,3.2-2.4,4.1-4.1c0.8-1.5,1.9-2.6,3.4-3.3c0.1-0.1,0.3-0.1,0.4-0.1C162,349.3,162.1,349.3,162.3,349.3z"/>
	<path class="st0" d="M126.8,357.3c-1.5,2.4-4,3.4-6.6,2.8c-2.5-0.6-4.5-2.9-4.7-5.4c-0.1-2,0.5-3.7,2.1-5.1
		c0.4-0.3,0.7-0.4,1.2-0.2c1.3,0.6,2.3,1.5,3.1,2.8c0.2,0.3,0.3,0.6,0.5,0.9c0.9,1.5,2,2.8,3.6,3.7
		C126.2,356.9,126.5,357.1,126.8,357.3z"/>
</g>
</svg>
